<?xml version="1.0" encoding="iso-8859-1"?>
<!-- Uploaded to: SVG Repo, www.svgrepo.com, Generator: SVG Repo Mixer Tools -->
<svg height="800px" width="800px" version="1.1" id="Layer_1" xmlns="http://www.w3.org/2000/svg" xmlns:xlink="http://www.w3.org/1999/xlink" 
	 viewBox="0 0 512 512" xml:space="preserve">
<path style="fill:#A2CE86;" d="M273.267,90.772c-13.125-43.02-44.708-77.502-82.427-89.987c-6.229-2.061-13.078,0.029-17.095,5.215
	c-24.326,31.413-31.285,77.652-18.16,120.673c13.124,43.021,44.708,77.502,82.427,89.987c1.599,0.529,3.238,0.785,4.859,0.785
	c4.698,0,9.249-2.144,12.235-6C279.433,180.033,286.391,133.794,273.267,90.772z"/>
<path style="fill:#489B6D;" d="M255.107,211.446c24.326-31.413,31.285-77.652,18.16-120.675
	c-13.125-43.02-44.708-77.502-82.427-89.987c-3.181-1.052-6.522-1.016-9.566-0.044c9.227,29.785,40.45,130.659,66.523,215.888
	C250.627,215.678,253.19,213.92,255.107,211.446z"/>
<path style="fill:#A2CE86;" d="M162.2,132.322c-43.467-11.562-89.424-2.938-119.939,22.507c-5.039,4.202-6.879,11.122-4.594,17.272
	c13.839,37.243,49.439,67.561,92.905,79.123c43.467,11.562,89.425,2.939,119.939-22.507c1.293-1.079,2.375-2.336,3.231-3.713
	c2.48-3.99,3.061-8.988,1.363-13.559C241.268,174.203,205.668,143.884,162.2,132.322z"/>
<path style="fill:#489B6D;" d="M255.107,211.446c-13.839-37.243-49.439-67.561-92.905-79.123s-89.424-2.938-119.939,22.507
	c-2.572,2.145-4.305,5.002-5.087,8.101c30.167,7.885,132.325,34.615,218.475,57.459
	C256.336,217.484,256.196,214.379,255.107,211.446z"/>
<path style="fill:#007AB7;" d="M301.484,164.363c-95.844,0-173.819,77.975-173.819,173.818C127.665,434.025,205.64,512,301.484,512
	s173.819-77.975,173.819-173.819S397.328,164.363,301.484,164.363z"/>
<path style="fill:#0EABD9;" d="M301.484,164.363c-95.844,0-173.819,77.975-173.819,173.818C127.665,434.025,205.64,512,301.484,512
	V164.363z"/>
<path style="fill:#E0EFED;" d="M301.484,225.085c-62.361,0-113.097,50.734-113.097,113.097s50.735,113.097,113.097,113.097
	S414.58,400.543,414.58,338.181S363.845,225.085,301.484,225.085z"/>
<path style="fill:#F4FCFD;" d="M301.484,225.085c-62.361,0-113.097,50.734-113.097,113.097s50.735,113.097,113.097,113.097V225.085z
	"/>
<g>
	<path style="fill:#F2BA57;" d="M291.93,366.789c-8.544,0-15.471-6.927-15.471-15.471V295.19c0-8.544,6.927-15.471,15.471-15.471
		c8.544,0,15.471,6.927,15.471,15.471v56.127C307.401,359.862,300.474,366.789,291.93,366.789z"/>
	<path style="fill:#F2BA57;" d="M331.682,366.789h-39.753c-8.544,0-15.471-6.927-15.471-15.471c0-8.544,6.927-15.471,15.471-15.471
		h39.753c8.544,0,15.471,6.927,15.471,15.471C347.154,359.862,340.228,366.789,331.682,366.789z"/>
</g>
</svg>